<?xml version="1.0" encoding="UTF-8" standalone="no"?>
<svg
   xmlns:dc="http://purl.org/dc/elements/1.1/"
   xmlns:cc="http://creativecommons.org/ns#"
   xmlns:rdf="http://www.w3.org/1999/02/22-rdf-syntax-ns#"
   xmlns:svg="http://www.w3.org/2000/svg"
   xmlns="http://www.w3.org/2000/svg"
   width="60"
   height="59.123428"
   viewBox="0 0 15.874999 15.643074"
   version="1.1"
   id="svg8">
  <defs
     id="defs2" />
  <metadata
     id="metadata5">
    <rdf:RDF>
      <cc:Work
         rdf:about="">
        <dc:format>image/svg+xml</dc:format>
        <dc:type
           rdf:resource="http://purl.org/dc/dcmitype/StillImage" />
        <dc:title></dc:title>
      </cc:Work>
    </rdf:RDF>
  </metadata>
  <g
     id="layer1"
     transform="translate(-23.483523,-220.67685)">
    <g
       id="g955"
       transform="matrix(1.1465856,0,0,1.1465856,-3.4423473,-32.348057)"
       style="stroke-width:0.872155">
      <path
         style="fill:#c2885b;stroke-width:0.872155"
         d="m 30.185144,234.32004 h -0.03032 l -0.01389,-0.0225 -0.01389,-0.0225 9.43e-4,-0.19893 9.43e-4,-0.19893 H 30.0976 30.06627 l -0.01715,-0.0277 -0.01715,-0.0277 -0.0064,-0.40324 -0.0064,-0.40324 0.04191,-0.0224 0.04191,-0.0224 0.02657,0.0714 0.02657,0.0714 0.02869,0.0554 0.02869,0.0554 0.01533,0.0717 0.01533,0.0717 0.02044,0.0126 0.02044,0.0126 v 0.42886 0.42886 l -0.03479,0.0348 -0.03479,0.0348 h -0.03032 z m 0.650244,-0.0664 h -0.04205 l -0.02522,-0.0554 -0.02522,-0.0554 h -0.02994 -0.02994 l -0.0557,-0.12595 -0.0557,-0.12595 0.01276,-0.18697 0.01276,-0.18698 0.04254,-0.0834 0.04254,-0.0834 0.08043,-0.0497 0.08043,-0.0497 0.01955,0.0309 0.01955,0.0309 3.38e-4,0.0184 3.39e-4,0.0184 0.06471,-0.0142 0.06471,-0.0142 -0.0081,0.0401 -0.0081,0.0401 -0.03762,0.39853 -0.03762,0.39854 -0.02172,0.0277 -0.02173,0.0277 h -0.04204 z m 6.424037,-11.34396 -0.05535,0.003 -0.121775,-0.0199 -0.121774,-0.0199 -0.237334,0.005 -0.237333,0.005 -0.02696,-0.0269 -0.02696,-0.027 0.04512,-0.0501 0.04512,-0.0501 0.01511,-0.0268 0.01511,-0.0268 -0.02826,-0.0453 -0.02826,-0.0453 0.02433,-0.0387 0.02433,-0.0387 0.09057,-0.0124 0.09057,-0.0124 0.05956,-0.0596 0.05956,-0.0596 h 0.02022 0.02022 l 0.07086,0.0365 0.07086,0.0365 0.09141,0.0747 0.09141,0.0747 0.0596,0.086 0.0596,0.086 -0.0071,0.074 -0.0071,0.0741 z m -0.26569,-0.28189 0.03321,9.1e-4 -0.05535,-0.0433 -0.05535,-0.0433 -0.0153,-5e-4 -0.0153,-4.9e-4 -0.0138,0.0223 -0.0138,0.0223 0.05124,0.0206 0.05124,0.0205 0.03321,9.1e-4 z m -0.773009,-0.52636 -0.04014,0.0496 -0.02671,-0.0499 -0.02671,-0.0499 0.02639,-0.0318 0.02639,-0.0318 h 0.02813 0.02813 l 0.01233,0.0321 0.01233,0.0321 z"
         id="path947" />
      <path
         style="fill:#e84049;stroke-width:0.872155"
         d="m 36.026528,223.47069 -0.0402,-3.2e-4 -0.05535,-0.028 -0.05535,-0.028 -0.0118,-0.11007 -0.0118,-0.11006 7.29e-4,-0.14392 7.28e-4,-0.14391 0.03621,-3.2e-4 0.03621,-3.2e-4 0.105052,-0.11684 0.105051,-0.11684 0.06244,-0.0323 0.06244,-0.0323 h 0.05487 0.05487 l 0.03677,0.0368 0.03677,0.0368 -0.01451,0.0967 -0.01451,0.0967 -0.06137,0.12665 -0.06137,0.12665 -0.03027,0.0775 -0.03027,0.0775 -0.04228,0.0725 -0.04228,0.0725 -0.0403,0.0216 -0.0403,0.0216 -0.0402,-3.3e-4 z m 0.229531,-0.59903 0.02618,0.002 0.01476,-0.0465 0.01476,-0.0465 -0.02055,-0.0205 -0.02055,-0.0205 -0.06234,0.049 -0.06234,0.049 0.04195,0.0165 0.04194,0.0165 0.02618,0.002 z m 0.748746,-0.66267 h -0.07207 l -0.02799,-0.0337 -0.02799,-0.0337 -0.05775,-0.0859 -0.05775,-0.0859 -0.09455,-0.12358 -0.09455,-0.12358 -0.06969,-0.036 -0.06969,-0.036 -0.167873,-0.0299 -0.167874,-0.03 -0.102458,-7.7e-4 -0.102458,-7.8e-4 -0.02157,-0.0277 -0.02157,-0.0277 -0.0288,-0.32396 -0.02879,-0.32396 0.01335,-0.0348 0.01335,-0.0348 0.0902,-0.0597 0.0902,-0.0597 0.104624,-0.01 0.104625,-0.01 0.03815,0.0294 0.03815,0.0294 0.0296,0.1171 0.0296,0.11709 0.04173,-0.0461 0.04173,-0.0461 0.0455,0.007 0.0455,0.007 0.0067,0.10517 0.0067,0.10517 h 0.0198 0.0198 l 0.05911,-0.0775 0.05911,-0.0775 h 0.03928 0.03928 l 0.01344,0.035 0.01344,0.035 v 0.11276 0.11275 l 0.05124,-0.0481 0.05124,-0.0481 h 0.04584 0.04584 l 0.01469,0.11753 0.01469,0.11754 -0.02232,0.0587 -0.02232,0.0587 0.05507,-0.0251 0.05507,-0.0251 0.02142,0.0214 0.02142,0.0214 0.0057,0.32218 0.0057,0.32218 -0.03039,0.0366 -0.03039,0.0366 z m -0.01107,-0.17713 h 0.02214 v -0.01 -0.01 l -0.02214,-0.0137 -0.02214,-0.0137 v 0.0234 0.0234 z m 0,-0.26569 h 0.02214 v -0.0332 -0.0332 h -0.02214 -0.02214 v 0.0332 0.0332 z m -0.157355,-0.26569 h 0.01977 l 0.01344,-0.035 0.01344,-0.035 v -0.023 -0.023 l -0.03321,0.0276 -0.03321,0.0276 v 0.0305 0.0305 z m -0.183118,-0.15499 h 0.0305 v -0.0886 -0.0886 h -0.0196 -0.01959 l -0.03724,0.0568 -0.03724,0.0568 0.02633,0.0317 0.02633,0.0317 z m -0.221796,-0.0539 0.0023,-0.001 -0.01349,-0.1107 -0.01349,-0.11071 -0.0145,0.0223 -0.01449,0.0223 -0.01517,0.0808 -0.01516,0.0808 0.04083,0.009 0.04083,0.009 z"
         id="path945" />
      <path
         style="fill:#a03370;stroke-width:0.872155"
         d="m 30.035554,233.63066 -0.0051,-0.003 -0.0484,-0.009 -0.0484,-0.009 -0.05677,-0.14857 -0.05677,-0.14857 v -0.0284 -0.0284 l -0.06089,-0.0224 -0.06089,-0.0224 -0.185953,-0.37787 -0.185952,-0.37787 -0.04099,-0.0107 -0.04099,-0.0107 v -0.023 -0.023 l -0.04111,0.0372 -0.04111,0.0372 -0.02234,-0.0282 -0.02234,-0.0282 -0.0123,-0.0332 -0.01229,-0.0332 -0.0017,0.0643 -0.0018,0.0643 -0.03875,-0.0466 -0.03875,-0.0466 -0.03875,-0.0499 -0.03875,-0.0498 v -0.0405 -0.0405 l -0.03875,-0.0143 -0.03875,-0.0143 -0.01593,-0.0238 -0.01593,-0.0238 -0.04699,0.0291 -0.04699,0.0291 -0.02803,-0.0383 -0.02803,-0.0383 -0.02462,0.0424 -0.02462,0.0424 -6.73e-4,-0.0362 -6.73e-4,-0.0362 -0.04982,-0.0134 -0.04982,-0.0134 -0.07011,-3e-4 -0.07011,-3.1e-4 -0.01152,0.0277 -0.01152,0.0277 -0.03151,-0.0388 -0.03151,-0.0387 h -0.02524 -0.02524 v 0.0201 0.0201 l -0.04428,-0.0116 -0.04428,-0.0116 v -0.0196 -0.0196 h -0.03409 -0.03409 l -0.09322,-0.0471 -0.09322,-0.0471 -0.09963,-0.0725 -0.09963,-0.0725 -0.02214,-0.002 -0.02214,-0.002 v -0.0182 -0.0182 l -0.03717,-0.0372 -0.03717,-0.0372 h -0.02503 -0.02503 l 0.01185,-0.0192 0.01186,-0.0192 -0.04002,-0.0362 -0.04002,-0.0362 -0.01481,0.0148 -0.01481,0.0148 v -0.0435 -0.0435 l -0.02749,-0.0275 -0.02749,-0.0275 -0.05842,0.0716 -0.05842,0.0716 -0.03744,-0.0374 -0.03744,-0.0374 h -0.05377 -0.05377 l -3.39e-4,-0.0277 -3.39e-4,-0.0277 -0.01627,0.0243 -0.01627,0.0243 -0.06089,0.0149 -0.06089,0.0149 v -0.032 -0.032 l 0.03341,-0.0334 0.03341,-0.0334 0.01819,-0.0492 0.01819,-0.0492 -0.01036,-0.0542 -0.01036,-0.0542 -0.08,0.0128 -0.08,0.0128 -0.04982,-0.013 -0.04982,-0.013 v -0.0306 -0.0306 h -0.02214 -0.02214 v -0.0664 -0.0664 h -0.04686 -0.04686 l 0.0108,-0.0565 0.0108,-0.0565 -0.05803,0.0107 -0.05803,0.0107 -0.0813,0.0132 -0.0813,0.0132 -0.01328,-0.0215 -0.01328,-0.0215 0.04468,-0.0733 0.04468,-0.0733 8.9e-5,-0.0498 8.8e-5,-0.0498 h -0.03084 -0.03084 l -0.01274,-0.0332 -0.01275,-0.0332 h -0.04498 -0.04498 v -0.0394 -0.0393 l 0.03216,-0.0459 0.03216,-0.0459 -0.0078,-0.0863 -0.0078,-0.0863 -0.0022,-0.0166 -0.0022,-0.0166 h -0.02372 -0.02372 l -0.03163,-0.0316 -0.03163,-0.0316 v -0.0237 -0.0237 h -0.02214 -0.02214 v -0.0332 -0.0332 l 0.0166,-1e-5 0.01661,-2e-5 0.0064,-0.0996 0.0064,-0.0996 h -0.0341 -0.0341 v -0.0321 -0.0321 l 0.03875,-0.0229 0.03875,-0.0229 -0.05107,-0.0143 -0.05107,-0.0143 0.01079,-0.0281 0.01079,-0.0281 -0.04275,-0.0112 -0.04275,-0.0112 v -0.0353 -0.0353 h -0.03321 -0.03321 l -9.59e-4,-0.0498 -9.59e-4,-0.0498 -0.158076,-0.1107 -0.158077,-0.11071 -0.163451,-0.16052 -0.163451,-0.16052 h -0.02183 -0.02183 l -0.03108,-0.072 -0.03108,-0.072 -0.06189,-0.0912 -0.06189,-0.0912 -0.03613,0.023 -0.03613,0.023 -0.06904,-0.0286 -0.06904,-0.0286 v -0.0261 -0.0261 l 0.02657,-0.0266 0.02657,-0.0266 h 0.03843 0.03843 l -0.114814,-0.19545 -0.114815,-0.19545 -0.08226,-0.17541 -0.08226,-0.17541 -0.05889,-0.14391 -0.05889,-0.14392 -0.01062,-0.083 -0.01062,-0.083 h 0.01969 0.01969 l 0.03916,-0.0663 0.03916,-0.0663 0.05437,-0.0136 0.05437,-0.0136 0.01325,-0.0528 0.01325,-0.0528 -0.16576,-0.1548 -0.165761,-0.1548 -0.03748,-0.079 -0.03748,-0.079 0.0062,-0.0863 0.0062,-0.0863 -0.10166,-0.0776 -0.101659,-0.0776 -0.08467,-0.11721 -0.08467,-0.1172 -0.08686,-0.0762 -0.08686,-0.0762 -0.03033,-0.0726 -0.03033,-0.0726 v -0.0793 -0.0793 l 0.03175,-0.0614 0.03175,-0.0614 0.0344,-0.0286 0.03441,-0.0286 -0.04402,-0.0618 -0.04402,-0.0618 v -0.0353 -0.0353 l 0.0166,9e-4 0.01661,9e-4 0.07556,0.0646 0.07556,0.0646 0.0217,-0.0134 0.0217,-0.0134 0.124156,-0.0134 0.124156,-0.0133 -0.0938,-0.10178 -0.0938,-0.10179 0.01446,-0.0144 0.01446,-0.0145 h -0.02714 -0.02714 l 0.01274,-0.0206 0.01274,-0.0206 -0.02282,-0.0141 -0.02282,-0.0141 -0.04397,-0.0862 -0.04397,-0.0862 v -0.0826 -0.0826 l 0.11957,-0.11397 0.11957,-0.11398 -0.114554,-0.0914 -0.114554,-0.0914 -0.07578,-0.0782 -0.07578,-0.0782 h -0.0283 -0.0283 l -0.03168,-0.0609 -0.03168,-0.0609 -0.05956,-0.0554 -0.05956,-0.0554 -0.03321,-0.0639 -0.03321,-0.0639 7.06e-4,-0.11327 7.07e-4,-0.11327 0.06391,-0.0554 0.06391,-0.0554 0.03975,-0.15008 0.03975,-0.15007 0.0402,-0.0215 0.0402,-0.0215 h 0.0236 0.0236 v 0.0305 0.0305 l -0.03428,0.0285 -0.03428,0.0284 0.0066,0.0429 0.0066,0.0429 0.161172,0.051 0.161171,0.051 0.02703,0.0197 0.02703,0.0197 0.08446,0.0287 0.08446,0.0287 0.07717,0.006 0.07717,0.006 -0.0647,-0.0579 -0.0647,-0.0579 -0.08032,-0.10191 -0.08032,-0.10192 v -0.0191 -0.0191 l -0.03596,-0.0942 -0.03596,-0.0942 -0.04646,0.0325 -0.04646,0.0325 H 23.981 23.95272 v -0.03 -0.03 l 0.05535,-0.0597 0.05535,-0.0597 v -0.0675 -0.0675 l 0.03585,-0.0755 0.03585,-0.0755 0.05146,-0.0129 0.05146,-0.0129 0.0234,0.0145 0.0234,0.0145 v 0.043 0.043 h 0.0097 0.0097 l 0.128674,-0.0696 0.128674,-0.0696 0.02214,-0.0165 0.02214,-0.0164 0.09137,-0.0151 0.09137,-0.0151 0.207396,0.11516 0.207395,0.11516 0.155121,0.10473 0.155122,0.10473 0.09149,0.0916 0.09149,0.0916 h 0.04384 0.04384 l 0.08358,0.0664 0.08358,0.0664 h 0.04046 0.04046 l 0.0237,0.0443 0.0237,0.0443 0.0269,4e-4 0.0269,4e-4 0.08432,0.17673 0.08431,0.17672 h 0.01839 0.01839 l 0.07197,0.20879 0.07197,0.20879 0.0515,0.0846 0.0515,0.0846 0.0858,0.16606 0.0858,0.16606 0.06224,0.1107 0.06224,0.1107 0.0196,0.0129 0.0196,0.0129 0.04901,0.0707 0.04901,0.0707 0.306927,0.14296 0.306926,0.14296 0.11375,0.0135 0.11375,0.0135 0.154986,0.0417 0.154986,0.0417 0.309972,0.0581 0.309972,0.058 0.24355,0.0425 0.243549,0.0425 0.398536,0.0341 0.398535,0.0341 0.214267,0.0128 0.214267,0.0127 0.162128,-0.0887 0.162128,-0.0887 0.166056,-0.0597 0.166057,-0.0596 0.415831,-0.0649 0.415831,-0.0649 h 0.08995 0.08995 l 0.01158,-0.0443 0.01158,-0.0443 h 0.01771 0.01771 l 0.0087,0.0261 0.0087,0.0261 0.0319,-0.0199 0.03191,-0.0199 0.04312,-0.007 0.04312,-0.007 0.03611,-0.0327 0.03611,-0.0327 h 0.05828 0.05828 l 0.04514,-0.0485 0.04514,-0.0485 v -0.0535 -0.0536 l 0.03502,0.0134 0.03502,0.0134 h 0.0086 0.0086 l -0.01188,0.031 -0.01188,0.031 0.01917,0.0119 0.01917,0.0118 0.02755,-0.017 0.02755,-0.017 -0.02033,-0.0905 -0.02033,-0.0905 0.02826,0.0109 0.02826,0.0108 0.01522,-0.0901 0.01522,-0.0901 h 0.0202 0.0202 v -0.053 -0.053 l 0.03574,-0.0137 0.03574,-0.0137 -0.01068,-0.0559 -0.01068,-0.0559 0.03832,-0.0269 0.03832,-0.0269 0.08127,-0.16144 0.08127,-0.16144 -0.01523,-0.0246 -0.01523,-0.0246 0.02313,0.0143 0.02313,0.0143 0.03564,-0.0751 0.03564,-0.0751 v -0.0465 -0.0465 h -0.02214 -0.02214 v -0.0196 -0.0195 l 0.04661,-0.0122 0.04661,-0.0122 -0.0098,-0.0291 -0.0098,-0.0291 0.02598,-0.0221 0.02598,-0.0221 0.123584,-0.31111 0.123584,-0.31111 0.01624,-0.0866 0.01625,-0.0866 0.06508,-0.11154 0.06508,-0.11154 0.06634,-0.0695 0.06634,-0.0695 -0.02573,-0.0159 -0.02573,-0.0159 0.04949,-0.0527 0.04949,-0.0527 0.07468,-0.014 0.07468,-0.014 0.06891,-0.10256 0.06891,-0.10257 0.06875,-0.0737 0.06875,-0.0737 0.06642,-0.0317 0.06642,-0.0316 0.07483,-0.0478 0.07483,-0.0478 0.224793,-0.0175 0.224793,-0.0175 0.08275,-0.0346 0.08275,-0.0346 0.279616,-0.0142 0.279616,-0.0142 -0.01426,0.0568 -0.01426,0.0568 0.23238,0.0158 0.232381,0.0158 0.164729,0.0804 0.16473,0.0804 0.0722,0.0996 0.0722,0.0996 0.01601,0.0996 0.01602,0.0996 0.01505,0.0896 0.01505,0.0897 -0.05856,0.0696 -0.05856,0.0696 -0.0799,0.007 -0.0799,0.007 -0.02422,0.0387 -0.02422,0.0387 0.02716,0.0435 0.02716,0.0435 -0.01214,0.0316 -0.01214,0.0316 -0.04285,-0.0112 -0.04285,-0.0112 v -0.018 -0.018 l -0.03479,-0.0348 -0.03479,-0.0348 h -0.0618 -0.06175 l -0.07505,0.05 -0.07505,0.05 -0.05972,0.0265 -0.05972,0.0265 -0.03941,0.0619 -0.03941,0.0619 -0.01983,0.014 -0.01983,0.0141 -0.006,0.55053 -0.006,0.55054 -0.02432,0.1882 -0.02432,0.18819 -5.4e-4,0.22141 -5.4e-4,0.22141 -0.04098,0.1882 -0.04098,0.1882 -0.06854,0.31156 -0.06854,0.31156 -0.02229,0.25303 -0.02229,0.25303 -0.02375,0.33211 -0.02375,0.33212 -0.0321,0.20354 -0.0321,0.20355 -0.0354,0.10642 -0.0354,0.10643 -0.05718,0.0996 -0.05718,0.0996 -0.08194,0.1107 -0.08194,0.11071 -0.07085,0.21532 -0.07084,0.21533 0.01613,0.0261 0.01614,0.0261 -0.02233,-0.0138 -0.02233,-0.0138 -0.05803,0.14876 -0.05803,0.14877 -0.03274,0.1571 -0.03274,0.15711 -0.047,0.11965 -0.047,0.11966 -0.06446,0.10507 -0.06446,0.10507 -0.06486,0.13848 -0.06486,0.13848 -0.05864,0.0996 -0.05864,0.0996 0.06546,-0.0737 0.06546,-0.0738 0.0148,0.0239 0.0148,0.0239 h 0.02859 0.02859 l 0.07305,-0.14392 0.07305,-0.14391 h 0.04166 0.04166 l 0.01274,-0.0332 0.01274,-0.0332 h 0.01977 0.01977 v 0.0589 0.0589 l -0.125227,0.16803 -0.125227,0.16802 -0.06851,0.0687 -0.06851,0.0687 -0.03321,0.0468 -0.03321,0.0468 -0.03033,0.006 -0.03033,0.006 -0.02585,-0.0886 -0.02584,-0.0886 -0.05453,0.0799 -0.05453,0.0799 -0.06642,0.0558 -0.06642,0.0558 -0.01676,0.002 -0.01676,0.002 -0.116089,0.0593 -0.116089,0.0593 -0.102922,-0.005 -0.102921,-0.005 -0.01543,0.025 -0.01543,0.025 -0.06382,-0.014 -0.06382,-0.014 -0.04365,0.0139 -0.04365,0.0138 -0.01311,0.0413 -0.01311,0.0413 -0.06882,0.024 -0.06882,0.024 h -0.04098 -0.04098 v -0.0332 -0.0332 h -0.02611 -0.0261 l -0.07906,0.0275 -0.07906,0.0276 -0.01771,0.0278 -0.0177,0.0278 h -0.03053 -0.03053 l -0.02926,0.0284 -0.02926,0.0284 -0.07118,0.05 -0.07118,0.05 -0.02179,0.0789 -0.02179,0.0789 -0.116129,0.16798 -0.11613,0.16799 -0.03999,0.04 -0.03999,0.04 v 0.0221 0.0221 h -0.02214 -0.02214 v -0.0341 -0.0341 l 0.04663,-0.0932 0.04663,-0.0932 -0.114651,0.11071 -0.114651,0.1107 -0.07746,0.10474 -0.07746,0.10474 0.01177,0.019 0.01177,0.019 -0.06394,0.0473 -0.06394,0.0473 -0.0071,0.0503 -0.0071,0.0504 h -0.03256 -0.03256 l -0.02756,0.0554 -0.02756,0.0553 -0.05059,0.0122 -0.05059,0.0122 0.0071,0.24598 0.0071,0.24598 -0.04985,0.0573 -0.04985,0.0573 h -0.02922 -0.02922 v 0.0306 0.0306 l -0.04437,0.0116 -0.04437,0.0116 0.01198,0.0312 0.01198,0.0312 -0.04706,0.0598 -0.04706,0.0598 -0.06447,0.0333 -0.06447,0.0333 v 0.0229 0.0229 l 0.02214,-0.0137 0.02214,-0.0137 v 0.0786 0.0786 l -0.03791,0.0875 -0.03791,0.0875 -0.05409,0.0136 -0.05409,0.0136 -0.01835,-0.029 -0.01835,-0.029 -0.0077,-0.022 -0.0077,-0.022 -0.09053,0.0599 -0.09053,0.0599 -0.01493,0.0471 -0.01493,0.0471 -0.04592,-0.0493 -0.04593,-0.0493 0.03696,-0.027 0.03696,-0.027 v -0.0252 -0.0252 h 0.03452 0.03452 l -0.01487,-0.0241 -0.01488,-0.0241 -0.04264,0.0112 -0.04264,0.0111 -0.04315,-0.0463 -0.04315,-0.0463 -0.01388,-0.074 -0.01388,-0.074 0.02668,-0.0644 0.02668,-0.0644 -0.01457,-0.0459 -0.01457,-0.0459 h -0.05228 -0.05228 l -0.03479,-0.0348 -0.03479,-0.0348 -3.38e-4,0.18424 -3.39e-4,0.18424 -0.01627,0.0244 -0.01627,0.0244 -0.05015,0.0264 -0.05015,0.0264 -0.01282,-0.0397 -0.01282,-0.0397 -0.02253,-0.0603 -0.02253,-0.0603 -0.04515,0.0242 -0.04515,0.0242 0.01398,0.30741 0.01398,0.30741 -0.0051,-0.003 z m 1.199187,-1.34758 h 0.01977 l 0.01231,-0.0321 0.01231,-0.0321 -0.03208,0.0123 -0.03208,0.0123 v 0.0198 0.0198 z m 0.124143,-0.0886 h 0.01107 v -0.0111 -0.0111 h -0.01107 -0.01107 v 0.0111 0.0111 z m 4.861842,-10.09311 0.04014,-0.0496 -0.01233,-0.0321 -0.01233,-0.0321 h -0.02813 -0.02813 l -0.02639,0.0318 -0.02639,0.0318 0.02671,0.0499 0.02671,0.0499 z m -4.465919,9.69457 h -0.01107 l 0.01368,-0.0221 0.01368,-0.0221 h 0.01107 0.01107 l -0.01368,0.0221 -0.01368,0.0221 z m 2.128136,-9.49843 h -0.01107 v -0.0111 -0.0111 h 0.01107 0.01107 v 0.0111 0.0111 z"
         id="path943" />
    </g>
  </g>
</svg>
