<?xml version="1.0" encoding="UTF-8" standalone="no"?>
<svg
   xmlns:dc="http://purl.org/dc/elements/1.1/"
   xmlns:cc="http://creativecommons.org/ns#"
   xmlns:rdf="http://www.w3.org/1999/02/22-rdf-syntax-ns#"
   xmlns:svg="http://www.w3.org/2000/svg"
   xmlns="http://www.w3.org/2000/svg"
   width="360.52972"
   height="107.00006"
   viewBox="0 0 95.390153 28.310435"
   version="1.1"
   id="svg8">
  <defs
     id="defs2" />
  <metadata
     id="metadata5">
    <rdf:RDF>
      <cc:Work
         rdf:about="">
        <dc:format>image/svg+xml</dc:format>
        <dc:type
           rdf:resource="http://purl.org/dc/dcmitype/StillImage" />
        <dc:title></dc:title>
      </cc:Work>
    </rdf:RDF>
  </metadata>
  <g
     id="layer1"
     transform="translate(-19.108014,-216.63511)">
    <path
       style="fill:#fee301;stroke-width:1;fill-opacity:1"
       d="m 35.462035,244.81325 h -0.749279 l -1.619472,-2.4474 -1.619472,-2.44739 -0.511831,-0.59532 -0.511831,-0.59531 h -0.261053 -0.261052 l -2.518675,1.71979 -2.518674,1.71979 h -0.378001 -0.378001 l -0.417268,-0.46302 -0.417269,-0.46302 -0.186364,-0.74663 -0.186365,-0.74663 0.783687,-0.84087 0.783687,-0.84087 0.572689,-1.54489 0.572689,-1.5449 v -0.42353 -0.42354 l -3.196446,-3.08468 -3.196445,-3.08469 0.08759,-0.7206 0.08759,-0.72061 0.702603,-0.42395 0.702603,-0.42396 2.73698,0.3235 2.736981,0.3235 0.997723,0.0951 0.997723,0.095 0.357292,-0.35729 0.357293,-0.3573 0.68196,-2.85942 0.681959,-2.85941 0.158755,-1.23481 0.158755,-1.23481 0.639232,-0.41884 0.639231,-0.41884 h 0.520646 0.520646 l 0.138254,0.46302 0.138254,0.46303 0.295633,3.175 0.295632,3.175 0.183488,1.05833 0.183487,1.05833 4.273081,0.0726 4.27308,0.0726 0.182957,1.08291 0.182957,1.08291 -0.514305,0.69658 -0.514305,0.69658 -2.626421,1.85208 -2.626418,1.85209 -0.639291,0.45495 -0.63929,0.45495 0.691758,4.57213 0.691759,4.57213 -0.385925,0.59531 -0.385924,0.59532 z m -5.100867,-10.84792 h 0.141058 l 0.874461,-0.59531 0.87446,-0.59531 0.0018,-0.56224 0.0018,-0.56224 -0.165365,-0.82683 -0.165365,-0.82682 H 31.044569 30.16512 l -0.456825,1.44922 -0.456825,1.44921 0.484312,0.53516 0.484312,0.53516 z m -3.393982,-3.175 h 0.203878 l 0.152296,-0.39687 0.152295,-0.39688 h -0.685551 -0.685551 l 0.329376,0.39688 0.329377,0.39687 z m 8.396431,-0.28961 0.463021,-0.3544 0.110243,-0.0749 0.110243,-0.0749 H 35.47386 34.900596 v 0.42927 0.42927 z m 29.265315,13.51878 h -0.594164 l -0.411879,-0.58804 -0.411877,-0.58804 v -0.62195 -0.62194 l 1.014047,-0.91033 1.01405,-0.91033 2.335197,-1.65 2.335196,-1.65 0.317124,-0.92604 0.317127,-0.92604 0.176335,-0.55882 0.176336,-0.55882 -2.324713,-1.34167 -2.324714,-1.34168 -0.622596,-0.66272 -0.622594,-0.66272 -0.134091,-1.18966 -0.134093,-1.18967 0.719521,-0.66683 0.719518,-0.66682 0.834279,-0.25708 0.834279,-0.25708 2.816008,-0.1754 2.81601,-0.17539 0.408663,-1.49782 0.408664,-1.49782 0.283441,-1.09547 0.283443,-1.09546 0.897495,-0.42589 0.897499,-0.42589 h 0.281434 0.281432 l 0.299559,0.55973 0.299561,0.55973 0.388223,2.4118 0.388223,2.4118 0.111001,0.111 0.111001,0.111 1.790213,-0.31854 1.790213,-0.31855 1.909921,-0.28974 1.909919,-0.28973 0.3845,0.31911 0.384503,0.3191 0.172175,1.01911 0.172178,1.01911 -0.395695,0.7516 -0.395695,0.7516 -1.409444,1.37669 -1.409446,1.37669 -1.852083,1.42561 -1.852083,1.42561 0.02643,0.92579 0.02643,0.9258 1.342241,1.75122 1.342242,1.75123 0.178554,1.42909 0.178554,1.42909 -0.427564,0.82682 -0.427564,0.82682 -0.704455,0.1768 -0.704459,0.17681 -0.679794,-0.3759 -0.679791,-0.3759 -1.10958,-2.24447 -1.109581,-2.24447 -0.948573,-0.87045 -0.948577,-0.87046 -1.980676,1.36924 -1.980676,1.36924 -0.159832,0.69184 -0.159832,0.69184 -0.371499,0.59531 -0.371499,0.59531 h -0.509918 -0.509921 l -0.253621,-0.45319 -0.253619,-0.45319 -1.796193,1.37923 -1.79619,1.37924 h -0.594167 z m 11.269065,-11.76592 0.18937,-0.11703 -0.09972,-0.87155 -0.09972,-0.87154 -0.132742,-0.8599 -0.132741,-0.8599 h -0.359003 -0.359002 l -0.290465,0.83324 -0.290468,0.83323 v 0.47048 0.47048 l 0.692558,0.54477 0.692555,0.54476 z m 3.999515,-2.70506 0.811501,-0.47798 0.44527,-0.50789 0.44527,-0.50788 -0.484661,0.17715 -0.484659,0.17716 h -0.772112 -0.77211 v 0.80871 0.80871 z m -8.087542,0.0842 0.264583,-0.0768 0.08554,-0.4411 0.08555,-0.4411 h -0.65922 -0.65922 l -0.418513,-0.1606 -0.418515,-0.16059 v 0.28444 0.28444 l 0.727604,0.3941 0.727604,0.3941 z m 34.26354,13.99662 -0.39688,0.097 -1.05833,-0.74545 -1.05833,-0.74545 -2.38125,-1.32328 -2.381251,-1.32328 -0.94946,-0.56374 -0.94946,-0.56373 -1.65972,1.11447 -1.659718,1.11448 -0.13489,0.35151 -0.13489,0.35152 -0.926264,0.38702 -0.926264,0.38701 h -0.85126 -0.85126 l -0.307051,-0.6739 -0.307054,-0.67391 v -0.49626 -0.49626 l 1.472811,-1.25826 1.472811,-1.25826 0.402161,-0.7777 0.402161,-0.77769 -1.731957,-1.62253 -1.731957,-1.62252 -0.407598,-0.98369 -0.407599,-0.98369 v -0.78423 -0.78423 l 0.859896,-0.61333 0.859896,-0.61333 2.567553,-0.0906 2.567551,-0.0906 0.235493,-0.30631 0.235492,-0.30632 0.718301,-2.64583 0.718302,-2.64583 0.396496,-1.37691 0.396497,-1.3769 0.875887,-0.54133 0.875888,-0.54132 h 0.422477 0.42249 l 0.24867,0.46466 0.24868,0.46466 0.4136,2.37961 0.4136,2.37961 0.41561,1.38906 0.41562,1.38906 h 0.37899 0.37898 l 4.38427,-1.07484 4.38426,-1.07485 0.71661,0.0827 0.7166,0.0827 0.23969,1.24024 0.23969,1.24025 -0.4561,0.6961 -0.4561,0.69611 -1.18395,0.84177 -1.18394,0.84178 -2.43611,1.51815 -2.4361,1.51814 -0.34155,0.20165 -0.34156,0.20164 1.07337,3.00035 1.07337,3.00035 0.27237,1.21537 0.27237,1.21537 -0.30504,0.73642 -0.30503,0.73642 -0.56686,0.16208 -0.56686,0.16209 z m -3.21461,-6.51961 0.0927,-0.26085 -0.32321,-0.78031 -0.32321,-0.7803 h -0.1095 -0.1095 l -0.66224,0.43391 -0.66223,0.43391 1.00227,0.60724 1.00227,0.60724 z m -4.137618,-3.88806 1.267521,-0.71153 0.523007,-0.39687 0.523,-0.39688 -0.16086,-0.60878 -0.16087,-0.60879 -0.759369,0.14577 -0.759367,0.14576 -0.732404,0.13984 -0.732403,0.13984 -0.446262,1.241 -0.44626,1.241 0.308372,0.19058 0.308372,0.19059 z m -4.494466,-1.43693 0.244716,-0.0816 -0.0094,-0.25797 -0.0094,-0.25796 -0.593132,-0.0916 -0.593132,-0.0916 0.357777,0.4311 0.35778,0.4311 0.244719,-0.0816 z m 4.967528,-4.69856 h 0.264583 v -0.24896 -0.24897 l -0.264583,-0.16352 -0.264583,-0.16353 v 0.41249 0.41249 z m -50.426211,14.55209 h -0.619752 l -0.273894,-0.51178 -0.273891,-0.51177 v -0.54656 -0.54656 h -0.238311 -0.238313 l -1.415332,0.65887 -1.415336,0.65888 -0.721506,0.003 -0.721502,0.003 -0.423381,-0.64616 -0.423381,-0.64616 0.08655,-0.59263 0.08655,-0.59262 2.695218,-1.47319 2.69522,-1.4732 0.516062,-0.39687 0.516062,-0.39688 0.161211,-0.70376 0.161213,-0.70375 -1.358569,-1.13746 -1.358572,-1.13746 -0.388998,-0.93101 -0.388999,-0.931 0.845561,-0.70591 0.845561,-0.70591 1.40744,-0.17584 1.40744,-0.17585 0.141502,-0.57936 0.141505,-0.57948 0.322138,-2.89591 0.322138,-2.89591 0.658008,-0.60982 0.658006,-0.60982 h 0.722532 0.722532 l 0.535932,1.25677 0.535929,1.25678 0.488839,2.20065 0.488839,2.20066 0.661458,-0.14411 0.661459,-0.14411 2.438982,-0.17767 2.438982,-0.17767 0.272997,0.71803 0.272997,0.71804 v 0.78786 0.78786 l -1.20768,1.29111 -1.20768,1.29111 -1.456923,1.00342 -1.456923,1.00342 0.17113,0.93528 0.171133,0.93528 0.90597,2.01768 0.905973,2.01767 v 0.77671 0.7767 l -0.539475,0.57906 -0.539472,0.57906 -0.585007,-0.004 -0.585004,-0.004 -0.291177,-0.19438 -0.291177,-0.19439 -0.731088,-1.19063 -0.731089,-1.19062 -1.216747,-1.25677 -1.216748,-1.25677 h -0.284522 -0.284525 l -0.890077,0.74307 -0.890074,0.74307 -0.124484,1.57203 -0.124483,1.57204 -0.264613,0.33073 -0.264615,0.33073 H 48.76813 Z m 4.309337,-9.78959 h 0.07938 v -0.79375 -0.79375 H 52.759975 52.3631 v 0.47625 0.47625 l 0.3175,0.3175 0.3175,0.3175 z"
       id="path908" />
    <path
       style="fill:none;stroke:#666666;stroke-width:0.264583"
       d="m 35.462035,244.81325 h -0.749279 l -1.619472,-2.4474 -1.619472,-2.44739 -0.511831,-0.59532 -0.511831,-0.59531 h -0.261053 -0.261052 l -2.518675,1.71979 -2.518674,1.71979 h -0.378001 -0.378001 l -0.417268,-0.46302 -0.417269,-0.46302 -0.186364,-0.74663 -0.186365,-0.74663 0.783687,-0.84087 0.783687,-0.84087 0.572689,-1.54489 0.572689,-1.5449 v -0.42353 -0.42354 l -3.196446,-3.08468 -3.196445,-3.08469 0.08759,-0.7206 0.08759,-0.72061 0.702603,-0.42395 0.702603,-0.42396 2.73698,0.3235 2.736981,0.3235 0.997723,0.0951 0.997723,0.095 0.357292,-0.35729 0.357293,-0.3573 0.68196,-2.85942 0.681959,-2.85941 0.158755,-1.23481 0.158755,-1.23481 0.639232,-0.41884 0.639231,-0.41884 h 0.520646 0.520646 l 0.138254,0.46302 0.138254,0.46303 0.295633,3.175 0.295632,3.175 0.183488,1.05833 0.183487,1.05833 4.273081,0.0726 4.27308,0.0726 0.182957,1.08291 0.182957,1.08291 -0.514305,0.69658 -0.514305,0.69658 -2.626421,1.85208 -2.626418,1.85209 -0.639291,0.45495 -0.63929,0.45495 0.691758,4.57213 0.691759,4.57213 -0.385925,0.59531 -0.385924,0.59532 z m 29.166897,-0.79375 h -0.594164 l -0.411879,-0.58804 -0.411877,-0.58804 v -0.62195 -0.62194 l 1.014047,-0.91033 1.01405,-0.91033 2.335197,-1.65 2.335196,-1.65 0.317124,-0.92604 0.317127,-0.92604 0.176335,-0.55882 0.176336,-0.55882 -2.324713,-1.34167 -2.324714,-1.34168 -0.622596,-0.66272 -0.622594,-0.66272 -0.134091,-1.18966 -0.134093,-1.18967 0.719521,-0.66683 0.719518,-0.66682 0.834279,-0.25708 0.834279,-0.25708 2.816008,-0.1754 2.81601,-0.17539 0.408663,-1.49782 0.408664,-1.49782 0.283441,-1.09547 0.283443,-1.09546 0.897495,-0.42589 0.897499,-0.42589 h 0.281434 0.281432 l 0.299559,0.55973 0.299561,0.55973 0.388223,2.4118 0.388223,2.4118 0.111001,0.111 0.111001,0.111 1.790213,-0.31854 1.790213,-0.31855 1.909921,-0.28974 1.909919,-0.28973 0.3845,0.31911 0.384503,0.3191 0.172175,1.01911 0.172178,1.01911 -0.395695,0.7516 -0.395695,0.7516 -1.409444,1.37669 -1.409446,1.37669 -1.852083,1.42561 -1.852083,1.42561 0.02643,0.92579 0.02643,0.9258 1.342241,1.75122 1.342242,1.75123 0.178554,1.42909 0.178554,1.42909 -0.427564,0.82682 -0.427564,0.82682 -0.704455,0.1768 -0.704459,0.17681 -0.679794,-0.3759 -0.679791,-0.3759 -1.10958,-2.24447 -1.109581,-2.24447 -0.948573,-0.87045 -0.948577,-0.87046 -1.980676,1.36924 -1.980676,1.36924 -0.159832,0.69184 -0.159832,0.69184 -0.371499,0.59531 -0.371499,0.59531 h -0.509918 -0.509921 l -0.253621,-0.45319 -0.253619,-0.45319 -1.796193,1.37923 -1.79619,1.37924 h -0.594167 z m 41.444578,-0.39016 -0.39688,0.097 -1.05833,-0.74545 -1.05833,-0.74545 -2.38125,-1.32328 -2.381251,-1.32328 -0.94946,-0.56374 -0.94946,-0.56373 -1.65972,1.11447 -1.659718,1.11448 -0.13489,0.35151 -0.13489,0.35152 -0.926264,0.38702 -0.926264,0.38701 h -0.85126 -0.85126 l -0.307051,-0.6739 -0.307054,-0.67391 v -0.49626 -0.49626 l 1.472811,-1.25826 1.472811,-1.25826 0.402161,-0.7777 0.402161,-0.77769 -1.731957,-1.62253 -1.731957,-1.62252 -0.407598,-0.98369 -0.407599,-0.98369 v -0.78423 -0.78423 l 0.859896,-0.61333 0.859896,-0.61333 2.567553,-0.0906 2.567551,-0.0906 0.235493,-0.30631 0.235492,-0.30632 0.718301,-2.64583 0.718302,-2.64583 0.396496,-1.37691 0.396497,-1.3769 0.875887,-0.54133 0.875888,-0.54132 h 0.422477 0.42249 l 0.24867,0.46466 0.24868,0.46466 0.4136,2.37961 0.4136,2.37961 0.41561,1.38906 0.41562,1.38906 h 0.37899 0.37898 l 4.38427,-1.07484 4.38426,-1.07485 0.71661,0.0827 0.7166,0.0827 0.23969,1.24024 0.23969,1.24025 -0.4561,0.6961 -0.4561,0.69611 -1.18395,0.84177 -1.18394,0.84178 -2.43611,1.51815 -2.4361,1.51814 -0.34155,0.20165 -0.34156,0.20164 1.07337,3.00035 1.07337,3.00035 0.27237,1.21537 0.27237,1.21537 -0.30504,0.73642 -0.30503,0.73642 -0.56686,0.16208 -0.56686,0.16209 z m -57.305377,-1.99107 h -0.619752 l -0.273894,-0.51178 -0.273891,-0.51177 v -0.54656 -0.54656 h -0.238311 -0.238313 l -1.415332,0.65887 -1.415336,0.65888 -0.721506,0.003 -0.721502,0.003 -0.423381,-0.64616 -0.423381,-0.64616 0.08655,-0.59263 0.08655,-0.59262 2.695218,-1.47319 2.69522,-1.4732 0.516062,-0.39687 0.516062,-0.39688 0.161211,-0.70376 0.161213,-0.70375 -1.358569,-1.13746 -1.358572,-1.13746 -0.388998,-0.93101 -0.388999,-0.931 0.845561,-0.70591 0.845561,-0.70591 1.40744,-0.17584 1.40744,-0.17585 0.141502,-0.57936 0.141505,-0.57948 0.322138,-2.89591 0.322138,-2.89591 0.658008,-0.60982 0.658006,-0.60982 h 0.722532 0.722532 l 0.535932,1.25677 0.535929,1.25678 0.488839,2.20065 0.488839,2.20066 0.661458,-0.14411 0.661459,-0.14411 2.438982,-0.17767 2.438982,-0.17767 0.272997,0.71803 0.272997,0.71804 v 0.78786 0.78786 l -1.20768,1.29111 -1.20768,1.29111 -1.456923,1.00342 -1.456923,1.00342 0.17113,0.93528 0.171133,0.93528 0.90597,2.01768 0.905973,2.01767 v 0.77671 0.7767 l -0.539475,0.57906 -0.539472,0.57906 -0.585007,-0.004 -0.585004,-0.004 -0.291177,-0.19438 -0.291177,-0.19439 -0.731088,-1.19063 -0.731089,-1.19062 -1.216747,-1.25677 -1.216748,-1.25677 h -0.284522 -0.284525 l -0.890077,0.74307 -0.890074,0.74307 -0.124484,1.57203 -0.124483,1.57204 -0.264613,0.33073 -0.264615,0.33073 H 48.76813 Z"
       id="path914" />
  </g>
</svg>
